<?xml version="1.0" encoding="UTF-8" standalone="no"?>
<!DOCTYPE svg PUBLIC "-//W3C//DTD SVG 1.1//EN" "http://www.w3.org/Graphics/SVG/1.1/DTD/svg11.dtd">
<svg width="100%" height="100%" viewBox="0 0 1024 1024" version="1.1" xmlns="http://www.w3.org/2000/svg" xmlns:xlink="http://www.w3.org/1999/xlink" xml:space="preserve" xmlns:serif="http://www.serif.com/" style="fill-rule:evenodd;clip-rule:evenodd;stroke-linejoin:round;stroke-miterlimit:2;">
    <g id="Layer-1" serif:id="Layer 1" transform="matrix(1,0,0,1,9.39426,601.551)">
        <g id="rect3" transform="matrix(1,0,0,1,-9.39426,-601.551)">
            <path d="M1024,145.248C1024,106.726 1008.7,69.781 981.458,42.542C954.219,15.303 917.274,-0 878.752,-0L145.248,-0C106.726,-0 69.781,15.303 42.542,42.542C15.303,69.781 -0,106.726 0,145.248L0,878.752C-0,917.274 15.303,954.219 42.542,981.458C69.781,1008.7 106.726,1024 145.248,1024L878.752,1024C917.274,1024 954.219,1008.7 981.458,981.458C1008.7,954.219 1024,917.274 1024,878.752L1024,145.248Z" style="fill:rgb(11,138,29);fill-opacity:0.7;"/>
        </g>
        <g id="text2" transform="matrix(1,0,0,1,125.578,277.623)">
            <text x="0px" y="0px" style="font-family:'Avenir-Book', 'Avenir';font-size:1037.22px;fill:white;">C</text>
        </g>
    </g>
</svg>
